HIERARCHY
ROOT root
{
	OFFSET 0.000000 0.000000 0.000000
	CHANNELS 6 Xposition Yposition Zposition Zrotation Yrotation Xrotation
	JOINT lhip
	{
		OFFSET 0.058581 -0.082280 -0.017664
		CHANNELS 3 Zrotation Yrotation Xrotation
		JOINT lknee
		{
			OFFSET 0.043451 -0.386469 0.008037
			CHANNELS 3 Zrotation Yrotation Xrotation
			JOINT lankle
			{
				OFFSET -0.014790 -0.426874 -0.037428
				CHANNELS 3 Zrotation Yrotation Xrotation
				JOINT ltoe
				{
					OFFSET 0.041054 -0.060286 0.122042
					CHANNELS 3 Zrotation Yrotation Xrotation
					End Site
					{
						OFFSET 0.000000 0.000000 0.000000
					}
				}
			}
		}
	}
	JOINT rhip
	{
		OFFSET -0.060310 -0.090513 -0.013543
		CHANNELS 3 Zrotation Yrotation Xrotation
		JOINT rknee
		{
			OFFSET -0.043257 -0.383688 -0.004843
			CHANNELS 3 Zrotation Yrotation Xrotation
			JOINT rankle
			{
				OFFSET 0.019056 -0.420046 -0.034562
				CHANNELS 3 Zrotation Yrotation Xrotation
				JOINT rtoe
				{
					OFFSET -0.034840 -0.062106 0.130323
					CHANNELS 3 Zrotation Yrotation Xrotation
					End Site
					{
						OFFSET 0.000000 0.000000 0.000000
					}
				}
			}
		}
	}
	JOINT lowerback
	{
		OFFSET 0.004439 0.124404 -0.038385
		CHANNELS 3 Zrotation Yrotation Xrotation
		JOINT upperback
		{
			OFFSET 0.004488 0.137956 0.026820
			CHANNELS 3 Zrotation Yrotation Xrotation
			JOINT chest
			{
				OFFSET -0.002265 0.056032 0.002855
				CHANNELS 3 Zrotation Yrotation Xrotation
				JOINT lowerneck
				{
					OFFSET -0.013390 0.211636 -0.033468
					CHANNELS 3 Zrotation Yrotation Xrotation
					JOINT upperneck
					{
						OFFSET 0.010113 0.088937 0.050410
						CHANNELS 3 Zrotation Yrotation Xrotation
						End Site
						{
							OFFSET 0.000000 0.000000 0.000000
						}
					}
				}
				JOINT lclavicle
				{
					OFFSET 0.071702 0.114000 -0.018898
					CHANNELS 3 Zrotation Yrotation Xrotation
					JOINT lshoulder
					{
						OFFSET 0.122921 0.045205 -0.019046
						CHANNELS 3 Zrotation Yrotation Xrotation
						JOINT lelbow
						{
							OFFSET 0.255332 -0.015649 -0.022946
							CHANNELS 3 Zrotation Yrotation Xrotation
							JOINT lwrist
							{
								OFFSET 0.265709 0.012698 -0.007375
								CHANNELS 3 Zrotation Yrotation Xrotation
								End Site
								{
									OFFSET 0.000000 0.000000 0.000000
								}
							}
						}
					}
				}
				JOINT rclavicle
				{
					OFFSET -0.082954 0.112472 -0.023707
					CHANNELS 3 Zrotation Yrotation Xrotation
					JOINT rshoulder
					{
						OFFSET -0.113228 0.046853 -0.008472
						CHANNELS 3 Zrotation Yrotation Xrotation
						JOINT relbow
						{
							OFFSET -0.260127 -0.014369 -0.031269
							CHANNELS 3 Zrotation Yrotation Xrotation
							JOINT rwrist
							{
								OFFSET -0.269108 0.006794 -0.006027
								CHANNELS 3 Zrotation Yrotation Xrotation
								End Site
								{
									OFFSET 0.000000 0.000000 0.000000
								}
							}
						}
					}
				}
			}
		}
	}
}
MOTION
Frames: 10
Frame Time: 0.033333
1.304618 0.712318 0.993904 -87.177117 0.089520 84.185314 -0.366457 -3.444380 0.863065 -2.287423 -13.602418 7.871178 3.279497 9.858541 -11.154597 0.000000 -0.000000 0.000000 0.513482 -4.674998 -0.420256 -1.487592 -1.831039 11.997007 1.131937 -10.554382 -10.397882 0.000000 -0.000000 0.000000 0.201223 5.112785 7.310456 -0.705952 -0.494153 3.661497 -0.038255 1.598569 -2.715623 1.508866 23.734706 -5.173161 3.137886 25.131347 5.093926 -29.276233 -5.207684 -0.101984 -50.574061 -2.812203 12.723973 1.413322 -18.945735 6.622973 -3.990973 -7.014725 4.932922 26.012797 5.881871 7.475720 51.129591 0.755888 14.356833 -8.680387 21.287104 2.524597 3.358095 5.638909 8.577298 
1.306028 0.713063 0.993959 -87.751620 -0.038059 84.488291 -0.500801 -3.514869 0.213481 -2.306008 -13.122787 8.455193 3.654687 10.157798 -11.429930 0.000000 -0.000000 0.000000 0.445177 -4.122844 -0.142969 -1.300099 -0.926502 10.594702 1.117712 -10.797995 -10.365281 0.000000 -0.000000 0.000000 -0.135954 5.258533 6.892995 -0.642772 -0.700561 4.064154 -0.383535 1.563210 -3.302161 1.773932 20.225610 -5.470394 4.096562 21.354150 7.281700 -28.993476 -4.887782 -0.312627 -49.794081 -3.625973 12.890715 1.916308 -18.398204 5.155415 -4.052260 -6.410175 5.367703 26.709874 5.944404 7.037684 51.498918 0.544416 14.836413 -9.145539 20.776893 2.422570 2.803356 5.455446 9.552869 
1.307113 0.714372 0.994215 -88.469722 0.120610 84.627222 -0.291131 -3.552015 -0.263535 -2.234391 -12.469526 9.056232 3.470614 10.396265 -11.708931 0.000000 -0.000000 0.000000 0.937990 -3.745870 -0.202712 -1.470628 -0.258759 10.081110 0.982324 -11.041194 -10.214709 0.000000 -0.000000 0.000000 -0.399228 5.100010 6.599004 -0.372928 -0.906799 4.346027 -0.588085 1.644455 -3.703373 1.705757 15.713371 -5.379331 4.352065 16.411188 8.550809 -28.809653 -4.653005 -0.281048 -49.295485 -4.047540 13.055993 2.500370 -18.140880 3.936770 -3.022701 -6.094966 5.608408 27.244304 6.174128 6.658073 51.704251 0.555814 15.056269 -8.719055 21.260220 2.843442 2.207866 5.734797 9.970060 
1.308350 0.716131 0.994627 -89.547773 0.178195 84.757562 -0.208579 -3.198417 -0.341860 -1.920863 -11.814949 9.032429 3.497261 10.601554 -11.979792 0.000000 -0.000000 0.000000 1.343559 -3.296301 -0.611672 -1.788834 -0.225458 10.278195 0.943453 -10.584433 -10.394942 0.000000 -0.000000 0.000000 -0.786573 4.866586 6.217362 -0.100453 -1.079840 4.596607 -0.939477 1.733311 -3.694760 1.085440 9.684219 -4.766927 4.484028 9.329286 8.899961 -28.096776 -3.979342 -0.638488 -49.546198 -4.328848 13.406161 3.211598 -18.655387 2.420125 -3.041609 -5.838116 5.681434 27.734776 6.394061 5.625150 52.317197 0.303682 15.424485 -8.294551 23.694451 3.105968 2.609788 6.371599 9.463890 
1.308902 0.717006 0.994593 -90.142934 0.089277 84.798357 -0.283736 -3.058272 -0.343996 -1.786256 -11.326540 9.103744 3.438704 10.749533 -12.222847 0.000000 -0.000000 0.000000 1.360458 -2.955297 -0.875827 -1.845274 -0.253615 10.575702 0.897076 -10.440336 -10.676715 0.000000 -0.000000 0.000000 -1.259059 4.670675 6.037895 0.149947 -1.153257 4.480512 -1.008970 1.582606 -3.217746 0.804268 5.918608 -4.038009 4.173407 5.087473 8.212052 -27.636905 -3.384648 -1.045890 -49.973273 -4.422840 13.584355 3.387438 -19.127879 1.283251 -3.639466 -6.101997 5.596244 27.791884 6.421386 4.656328 52.999802 0.124809 15.675314 -8.219037 25.290090 3.172633 2.916394 7.342634 9.378280 
1.311444 0.718917 0.993798 -91.219985 0.048487 84.880389 -0.191457 -2.754414 -1.061717 -1.894576 -10.496607 10.257602 3.703680 11.114934 -12.653191 0.000000 -0.000000 0.000000 1.569639 -2.415229 -2.053475 -1.896196 -0.014706 12.174623 0.710391 -10.485108 -11.178774 0.000000 -0.000000 0.000000 -1.537391 4.282367 6.505884 0.272667 -1.117777 3.971234 -1.323829 1.545819 -2.974118 0.199696 0.875515 -3.669967 4.088236 -0.451496 7.801878 -27.116817 -2.660245 -1.312547 -50.494858 -4.372306 14.095874 3.279986 -20.241624 -0.112234 -3.760963 -5.984230 4.216189 27.931684 6.540327 3.225774 54.198203 -0.118754 16.004338 -8.284069 27.935359 1.859538 3.487482 7.914551 6.249513 
1.313438 0.720129 0.992503 -92.047492 0.019312 84.843199 -0.175540 -2.903932 -2.227171 -2.301841 -9.851679 12.559220 4.111358 11.484575 -13.301414 0.000000 -0.000000 0.000000 1.680646 -1.804583 -3.191959 -1.725592 0.205766 14.085958 0.260425 -10.593162 -11.891366 0.000000 -0.000000 0.000000 -1.643031 4.090150 6.868296 0.430831 -1.290605 3.879553 -1.643966 1.402587 -2.799543 -0.109866 -3.161659 -3.183496 4.091092 -4.750453 7.010709 -27.020016 -2.121308 -1.739271 -50.924678 -4.486150 14.582236 2.905319 -20.867990 -1.125797 -4.473051 -6.177862 3.441575 27.965339 6.571899 2.214537 55.164431 -0.347972 16.364260 -7.990888 30.518249 1.322669 3.850692 9.165702 4.481600 
1.314592 0.720932 0.989769 -92.772597 0.035613 84.593291 0.096312 -3.360970 -3.701374 -3.237618 -8.985502 15.889069 4.696607 11.997647 -14.122950 0.000000 -0.000000 0.000000 1.736958 -1.424046 -4.368459 -1.421066 0.429729 16.649041 -0.239826 -10.652674 -13.025306 0.000000 -0.000000 0.000000 -1.645698 3.980378 7.564519 0.514464 -1.664632 3.493939 -1.757013 1.081210 -2.355833 -0.102144 -5.317938 -3.588800 4.077480 -7.187203 6.554091 -26.947001 -2.034803 -1.797814 -51.561694 -4.307086 14.912024 3.016708 -21.755224 -0.982060 -5.068001 -6.259623 2.811115 27.859148 6.628489 1.458570 55.989086 -0.282710 16.730752 -7.680713 33.480217 1.570563 4.352379 9.810323 2.448556 
1.315892 0.721089 0.985648 -93.515201 0.164620 84.094287 0.473831 -3.697050 -5.074972 -4.123583 -8.003466 19.550296 5.018062 12.427468 -15.338876 0.000000 -0.000000 0.000000 1.749401 -1.012072 -5.283171 -0.884711 0.568155 19.162594 -0.824323 -10.658810 -14.126195 0.000000 -0.000000 0.000000 -1.405345 3.954287 8.565463 0.622052 -1.892537 3.517843 -1.777899 0.880970 -2.088922 -0.036861 -6.077979 -4.113129 3.917111 -8.363663 5.681616 -27.407163 -2.785764 -1.678876 -52.010532 -4.375126 15.010440 3.208107 -21.631087 -0.227459 -5.594137 -6.200518 3.142225 27.920700 7.322194 1.186190 55.956378 -0.158976 17.064187 -7.228163 35.965550 2.702604 4.384937 10.285504 2.166096 
1.317209 0.721515 0.978831 -94.703841 0.080810 83.537604 0.707818 -3.705228 -6.379231 -5.098768 -6.860282 23.145552 5.582802 13.165862 -16.854969 0.000000 -0.000000 0.000000 1.750168 -0.204326 -7.021671 -0.597079 0.670240 23.286590 -1.341497 -10.626860 -15.802829 0.000000 -0.000000 0.000000 -1.347359 3.760006 10.034250 0.628125 -1.781554 3.216858 -1.678458 0.804953 -2.037869 -0.011094 -5.794014 -4.830004 3.597402 -8.248020 5.313796 -28.003738 -3.896016 -1.548037 -53.045692 -4.492577 14.865387 4.367847 -20.895108 -0.178997 -5.908632 -6.216730 3.700891 28.112298 8.530979 1.520995 55.694551 0.293267 17.528124 -6.805629 37.994908 4.208304 4.330692 10.839066 2.443234 
